Coordinates
version=1
nRows=5
nColumns=63
inDegrees=yes

Units are S.I. units (second, meters, Newtons, ...)
If the header above contains a line with 'inDegrees', this indicates whether rotational values are in degrees (yes) or radians (no).

endheader
time	pelvis_tilt	pelvis_list	pelvis_rotation	pelvis_tx	pelvis_ty	pelvis_tz	hip_flexion_r	hip_adduction_r	hip_rotation_r	knee_angle_r	knee_angle_r_beta	ankle_angle_r	subtalar_angle_r	mtp_angle_r	hip_flexion_l	hip_adduction_l	hip_rotation_l	knee_angle_l	knee_angle_l_beta	ankle_angle_l	subtalar_angle_l	mtp_angle_l	L5_S1_Flex_Ext	L5_S1_Lat_Bending	L5_S1_axial_rotation	L4_L5_Flex_Ext	L4_L5_Lat_Bending	L4_L5_axial_rotation	L3_L4_Flex_Ext	L3_L4_Lat_Bending	L3_L4_axial_rotation	L2_L3_Flex_Ext	L2_L3_Lat_Bending	L2_L3_axial_rotation	L1_L2_Flex_Ext	L1_L2_Lat_Bending	L1_L2_axial_rotation	L1_T12_Flex_Ext	L1_T12_Lat_Bending	L1_T12_axial_rotation	Abs_r3	Abs_r2	Abs_r1	Abs_t1	Abs_t2	neck_flexion	neck_bending	neck_rotation	arm_flex_r	arm_add_r	arm_rot_r	elbow_flex_r	pro_sup_r	wrist_flex_r	wrist_dev_r	arm_flex_l	arm_add_l	arm_rot_l	elbow_flex_l	pro_sup_l	wrist_flex_l	wrist_dev_l
      3.91700000	    -52.79478495	      0.69799400	      5.99086276	     -0.24842723	      1.01186455	      0.02203867	     82.63882307	     -7.98246995	     -2.32669416	     48.35266957	      0.84391329	      2.31682723	    -10.32715329	      0.00000000	    128.82036188	     -0.94246280	      3.55878738	    114.81199876	      2.00384740	     10.45851298	      1.23856357	      0.00000000	     -0.07580351	     -0.58514584	     -1.10470759	     -0.14077470	     -0.77824397	     -1.17375181	     -0.12453759	     -1.42272359	     -1.17375181	     -0.08663583	     -1.42272359	     -0.96661914	     -0.07039114	     -1.19322940	     -0.89757492	     -0.04331413	     -0.90639090	     -0.82853069	     -0.54145691	     -6.61928676	     -6.14405220	      0.00000000	      0.00000000	      0.00000000	      0.00000000	      0.00000000	     69.72412690	     -9.52140639	      4.76687156	     28.59371456	     57.68898540	      0.00000000	      4.99997930	     73.09874382	    -12.85181014	     19.20667963	     35.22981559	     63.65689415	      0.00000000	      4.99997930
      3.92500000	    -52.87566448	      0.69382083	      5.71446047	     -0.24896097	      1.01231166	      0.02252082	     82.85935147	     -7.76267904	     -2.20634234	     50.05866149	      0.87368846	      2.30526268	    -10.27608812	      0.00000000	    128.96026602	     -1.06769653	      3.59003059	    113.35493555	      1.97841685	     10.59006575	      1.11001262	      0.00000000	     -0.07646605	     -0.59089304	     -1.06097750	     -0.14200510	     -0.78588774	     -1.12728859	     -0.12562607	     -1.43669733	     -1.12728859	     -0.08739305	     -1.43669733	     -0.92835531	     -0.07100637	     -1.20494908	     -0.86204422	     -0.04369270	     -0.91529331	     -0.79573312	     -0.54618934	     -6.68430021	     -5.90083856	      0.00000000	      0.00000000	      0.00000000	      0.00000000	      0.00000000	     69.73503480	     -9.58197700	      4.69835338	     28.72563432	     57.65576828	      0.00000000	      4.99997960	     73.08734691	    -12.88632288	     19.11214035	     35.50541426	     63.59366897	      0.00000000	      4.99997960
      3.93300000	    -52.95536968	      0.65757224	      5.38668320	     -0.24956553	      1.01271767	      0.02296117	     83.21647588	     -7.50020691	     -2.04350952	     51.99940392	      0.90756081	      2.29993812	    -10.14352068	      0.00000000	    128.93905800	     -1.19088234	      3.64355444	    111.75008512	      1.95040692	     10.65673334	      0.90979276	      0.00000000	     -0.07518537	     -0.58865048	     -1.00286006	     -0.13962675	     -0.78290513	     -1.06553881	     -0.12352205	     -1.43124476	     -1.06553881	     -0.08592936	     -1.43124476	     -0.87750255	     -0.06981714	     -1.20037605	     -0.81482380	     -0.04296092	     -0.91181959	     -0.75214505	     -0.53704159	     -6.65893190	     -5.57760680	      0.00000000	      0.00000000	      0.00000000	      0.00000000	      0.00000000	     69.77017429	     -9.60779769	      4.64304871	     28.82505926	     57.61966134	      0.00000000	      4.99997989	     73.06809436	    -12.85545552	     18.97624273	     35.72278875	     63.51757151	      0.00000000	      4.99997989
      3.94200000	    -53.00053215	      0.58695694	      5.03401326	     -0.25014555	      1.01303972	      0.02340871	     83.70603066	     -7.20045907	     -1.80592541	     54.25047256	      0.94684937	      2.24751684	     -9.90516647	      0.00000000	    128.73829346	     -1.31661230	      3.70675383	    110.03313888	      1.92044056	     10.66177236	      0.59866497	      0.00000000	     -0.07537599	     -0.58046374	     -0.94042938	     -0.13998074	     -0.77201677	     -0.99920622	     -0.12383521	     -1.41133953	     -0.99920622	     -0.08614721	     -1.41133953	     -0.82287571	     -0.06999414	     -1.18368165	     -0.76409887	     -0.04306984	     -0.89913833	     -0.70532204	     -0.53840313	     -6.56632189	     -5.23038609	      0.00000000	      0.00000000	      0.00000000	      0.00000000	      0.00000000	     69.82650529	     -9.61339426	      4.59305682	     28.89687729	     57.58325127	      0.00000000	      4.99998019	     73.05389636	    -12.80212655	     18.77147935	     35.83878499	     63.43018375	      0.00000000	      4.99998019
      3.95000000	    -53.02320260	      0.45759776	      4.64713877	     -0.25071584	      1.01324764	      0.02394050	     84.32138498	     -6.82696737	     -1.55014109	     56.77474269	      0.99090619	      2.11933906	     -9.67938661	      0.00000000	    128.37922254	     -1.45989129	      3.79939788	    108.22044377	      1.88880306	     10.61970657	      0.19227259	      0.00000000	     -0.07573778	     -0.56576201	     -0.87206814	     -0.14065264	     -0.75246348	     -0.92657240	     -0.12442961	     -1.37559376	     -0.92657240	     -0.08656071	     -1.37559376	     -0.76305963	     -0.07033011	     -1.15370190	     -0.70855537	     -0.04327657	     -0.87636536	     -0.65405111	     -0.54098742	     -6.40001305	     -4.85018139	      0.00000000	      0.00000000	      0.00000000	      0.00000000	      0.00000000	     69.92112546	     -9.62669394	      4.55353626	     28.92186946	     57.58884872	      0.00000000	      4.99998037	     73.03998047	    -12.68004328	     18.53212845	     35.82677721	     63.40371500	      0.00000000	      4.99998037
